<?xml version="1.0" encoding="UTF-8"?>
<svg id="Layer_1" xmlns="http://www.w3.org/2000/svg" version="1.1" viewBox="0 0 320 62.109">
  <path d="M22.282,16.843c12.282,0,22.545,10.176,22.545,22.808,0,12.545-10,22.458-22.194,22.458C10.264,62.109,0,51.933,0,39.213c0-12.545,10.088-22.37,22.282-22.37ZM27.107,60.355c6.141.088,9.299-5.877,9.299-12.983,0-11.58-8.948-28.774-18.773-28.774-6.053,0-9.123,5.965-9.123,12.808,0,11.58,8.86,28.598,18.598,28.949Z"/>
  <path d="M46.578,6.492L59.825,0v24.125c1.842-3.246,6.755-7.281,13.247-7.281,9.211,0,18.334,7.194,18.334,22.019,0,16.229-10.351,23.247-18.51,23.247-6.404,0-11.141-3.772-13.159-5.702l-9.65,5,.526-41.406c.088-7.632-2.018-11.58-4.036-13.158v-.351ZM59.825,54.74c1.754,1.667,4.825,4.123,9.299,4.123,6.229,0,12.282-5.965,12.282-19.124-.088-13.071-5.614-19.738-12.632-19.738-3.684,0-7.457,2.895-8.948,5.878v28.861Z"/>
  <path d="M93.245,6.492l13.247-6.492v46.056c0,8.422,1.93,13.51,4.123,15.352h-13.86l.526-41.406c.087-7.632-2.018-11.58-4.036-13.158v-.351Z"/>
  <path d="M112.016,23.335l13.247-6.492v29.213c0,8.422,1.93,13.51,4.123,15.352h-13.86l.526-24.563c.175-7.632-2.018-11.58-4.036-13.158v-.351ZM119.823.439c3.597,0,6.14,2.895,6.14,6.316,0,3.509-2.544,6.229-6.14,6.229-3.509,0-6.316-2.72-6.316-6.229,0-3.421,2.807-6.316,6.316-6.316Z"/>
  <path d="M129.033,17.545h15.177v.351c-.263.176-.702,1.053-.702,2.719,0,1.491.351,3.509,1.491,6.316l9.562,23.686,6.053-13.422c2.017-4.562,2.895-8.334,2.895-11.755,0-3.509-.877-6.053-1.842-7.544v-.351h10.79v.351c-1.667,1.842-4.65,5.877-9.387,16.317l-8.509,18.773v8.422h-5.614l-12.808-31.055c-3.509-8.509-5.877-11.843-7.106-12.457v-.351Z"/>
  <path d="M173.594,23.335l13.246-6.492v29.213c0,8.422,1.93,13.51,4.123,15.352h-13.86l.526-24.563c.176-7.632-2.017-11.58-4.035-13.158v-.351ZM181.401.439c3.596,0,6.14,2.895,6.14,6.316,0,3.509-2.544,6.229-6.14,6.229-3.509,0-6.316-2.72-6.316-6.229,0-3.421,2.807-6.316,6.316-6.316Z"/>
  <path d="M214.823,16.843c12.282,0,22.545,10.176,22.545,22.808,0,12.545-10,22.458-22.195,22.458-12.369,0-22.633-10.176-22.633-22.896,0-12.545,10.089-22.37,22.283-22.37ZM219.647,60.355c6.14.088,9.299-5.877,9.299-12.983,0-11.58-8.948-28.774-18.773-28.774-6.053,0-9.123,5.965-9.123,12.808,0,11.58,8.86,28.598,18.598,28.949Z"/>
  <path d="M238.417,22.721l13.246-5.878v26.932c0,10.264,2.544,14.475,8.509,14.475,3.773,0,6.843-1.93,9.211-4.386l.176-17.282c0-7.544-2.017-11.93-4.036-13.51v-.351l13.247-5.878v29.213c0,8.422,2.193,13.51,4.386,15.352h-13.86l.087-5.79c-2.807,3.421-8.159,6.492-13.334,6.492-8.509,0-13.597-4.737-13.597-17.194v-8.334c0-7.544-2.017-11.93-4.035-13.51v-.351Z"/>
  <path d="M303.241,62.109c-7.369,0-13.159-1.316-16.755-2.544l-.877-15.001h.175c5.351,11.053,12.194,16.142,17.984,16.317,5.789.088,9.474-2.456,9.211-7.018-.176-4.386-5.614-6.667-11.667-9.65-8.772-4.386-15.089-7.72-15.352-15.264-.176-8.422,7.369-12.369,17.457-12.106,5.702.088,10.089,1.491,13.071,2.895l.702,13.422h-.176c-3.333-8.597-8.773-14.562-15.879-15.088-4.737-.351-8.509,2.017-8.333,5.877.176,4.474,4.474,6.93,12.369,10.527,8.51,4.035,14.563,7.632,14.826,14.738.176,8.422-7.896,12.895-16.756,12.895Z"/>
</svg>
